<?xml version="1.0" standalone="no"?>
<!DOCTYPE svg PUBLIC "-//W3C//DTD SVG 20010904//EN"
 "http://www.w3.org/TR/2001/REC-SVG-20010904/DTD/svg10.dtd">
<svg version="1.0" xmlns="http://www.w3.org/2000/svg"
 width="576.000000pt" height="526.000000pt" viewBox="0 0 576.000000 526.000000"
 preserveAspectRatio="xMidYMid meet">

<g transform="translate(0.000000,526.000000) scale(0.100000,-0.100000)"
fill="#000000" stroke="none">
<path d="M753 3954 c-15 -39 10 -205 38 -254 5 -8 13 -24 18 -35 25 -54 141
-149 171 -140 15 5 18 3 14 -9 -5 -12 0 -16 18 -16 13 0 29 -5 35 -11 6 -6 44
-19 84 -29 71 -19 124 -20 1262 -20 1033 0 1192 -2 1224 -15 19 -8 44 -15 55
-15 18 0 53 -15 98 -42 8 -5 23 -11 33 -14 9 -4 17 -10 17 -13 0 -4 20 -22 44
-39 55 -39 126 -145 158 -232 20 -57 23 -83 23 -210 -1 -117 -5 -155 -20 -200
-49 -138 -143 -248 -271 -316 -43 -23 -76 -34 -169 -54 -51 -12 -396 -12 -413
-1 -17 11 -17 377 0 398 8 10 59 13 214 13 111 0 205 4 208 9 3 4 18 11 33 14
25 5 81 52 121 101 32 40 56 186 32 201 -5 3 -10 19 -10 34 0 31 -57 96 -123
139 l-42 27 -1100 0 -1100 0 0 -55 c-1 -79 12 -175 27 -201 52 -92 137 -171
218 -203 25 -11 59 -24 75 -31 64 -27 226 -37 544 -34 174 2 322 0 328 -4 10
-6 13 -115 12 -469 0 -253 4 -464 8 -467 12 -9 1019 6 1088 16 33 5 70 14 82
21 12 7 31 12 42 12 11 0 37 7 58 16 21 9 52 23 68 29 178 75 342 198 445 335
19 25 37 47 40 50 11 9 70 110 70 119 0 5 8 24 17 43 9 18 22 45 30 60 7 14
13 37 13 50 0 13 4 28 9 34 30 32 55 433 32 514 -5 19 -17 67 -26 105 -9 39
-22 84 -29 100 -42 97 -87 179 -135 245 -53 73 -151 180 -165 180 -4 0 -34 22
-67 48 -81 66 -271 159 -360 176 -19 4 -43 11 -54 15 -11 5 -67 16 -125 25
-94 14 -257 16 -1498 16 -1260 0 -1393 -2 -1399 -16z m3217 -1504 c0 -5 -5
-10 -11 -10 -5 0 -7 5 -4 10 3 6 8 10 11 10 2 0 4 -4 4 -10z"/>
<path d="M2510 653 c-39 -7 -46 -21 -14 -30 39 -11 384 -10 409 1 17 7 13 10
-25 22 -43 13 -307 18 -370 7z"/>
</g>
</svg>
